<?xml version="1.0" encoding="utf-8"?>
<!-- Generator: Adobe Illustrator 16.0.0, SVG Export Plug-In . SVG Version: 6.00 Build 0)  -->
<!DOCTYPE svg PUBLIC "-//W3C//DTD SVG 1.1//EN" "http://www.w3.org/Graphics/SVG/1.1/DTD/svg11.dtd">
<svg version="1.1" id="Ebene_1" xmlns="http://www.w3.org/2000/svg" xmlns:xlink="http://www.w3.org/1999/xlink" x="0px" y="0px"
	 width="262px" height="329px" viewBox="0 0 262 329" enable-background="new 0 0 262 329" xml:space="preserve">
<path fill="#FFFFFF" d="M130.167,315.683c-48.191,0-88.827-28.505-108.699-76.252C15.186,224.335,12,208.345,12,191.908
	c0-31.031,19.417-57.915,20.245-59.043c5.164-7.057,13.631-18.589,18.816-25.629l64.044-86.976
	c3.805-5.166,9.295-8.129,15.062-8.129c5.767,0,11.256,2.964,15.062,8.129l64.044,86.976c5.186,7.041,13.653,18.573,18.814,25.629
	c0.829,1.129,20.246,28.012,20.246,59.043c0,16.437-3.186,32.427-9.469,47.522C218.994,287.178,178.357,315.683,130.167,315.683z
	 M130.167,26.143c-1.285,0-2.627,0.862-3.779,2.426l-64.044,86.976c-5.179,7.032-13.635,18.551-18.794,25.596
	c-0.17,0.234-17.538,24.402-17.538,50.768c0,14.581,2.823,28.757,8.392,42.14c17.887,42.974,52.792,67.623,95.763,67.623
	c42.972,0,77.878-24.649,95.765-67.623c5.566-13.383,8.391-27.559,8.391-42.14c0-26.366-17.367-50.534-17.542-50.775
	c-5.156-7.039-13.612-18.557-18.79-25.589l-64.044-86.976C132.794,27.004,131.452,26.143,130.167,26.143z"/>
<path fill="#D5A52A" d="M174.917,210.736c-33.631,0-54.476-28.921-87.434-28.921c-32.958,0-48.568,25.626-48.568,25.626
	c3.095,47.717,42.752,83.332,91.252,83.332c48.078,0,87.462-37.099,91.159-84.229C221.184,196.128,208.359,210.736,174.917,210.736z
	"/>
</svg>
