<?xml version="1.0" encoding="utf-8"?>
<!-- Generator: Adobe Illustrator 16.0.0, SVG Export Plug-In . SVG Version: 6.00 Build 0)  -->
<!DOCTYPE svg PUBLIC "-//W3C//DTD SVG 1.1//EN" "http://www.w3.org/Graphics/SVG/1.1/DTD/svg11.dtd">
<svg version="1.1" id="Ebene_1" xmlns="http://www.w3.org/2000/svg" xmlns:xlink="http://www.w3.org/1999/xlink" x="0px" y="0px"
	 width="65px" height="83px" viewBox="0 0 65 83" enable-background="new 0 0 65 83" xml:space="preserve">
<path fill="#FFFFFF" d="M32.045,81.934c-13.068,0-24.088-7.73-29.478-20.679C0.864,57.161,0,52.824,0,48.367
	c0-8.416,5.265-15.706,5.49-16.012c1.4-1.914,3.696-5.041,5.103-6.95L27.96,1.818c1.032-1.401,2.521-2.205,4.084-2.205
	c1.564,0,3.053,0.804,4.086,2.205l17.367,23.587c1.406,1.909,3.703,5.037,5.104,6.95c0.225,0.306,5.49,7.597,5.49,16.012
	c0,4.457-0.865,8.794-2.568,12.888C56.135,74.203,45.113,81.934,32.045,81.934z M32.045,3.413c-0.348,0-0.712,0.234-1.024,0.658
	L13.652,27.658c-1.404,1.907-3.697,5.03-5.097,6.941C8.509,34.663,3.8,41.217,3.8,48.367c0,3.954,0.766,7.799,2.275,11.428
	c4.851,11.654,14.317,18.339,25.97,18.339c11.654,0,21.119-6.685,25.971-18.339c1.51-3.629,2.275-7.474,2.275-11.428
	c0-7.15-4.711-13.705-4.758-13.77c-1.396-1.909-3.691-5.033-5.094-6.939L33.07,4.071C32.758,3.647,32.393,3.413,32.045,3.413z"/>
<path fill="#FFFFFF" d="M44.182,53.474c-9.121,0-14.774-7.844-23.712-7.844c-8.938,0-13.171,6.95-13.171,6.95
	C8.138,65.52,18.893,75.179,32.045,75.179c13.039,0,23.719-10.062,24.723-22.843C56.729,49.512,53.25,53.474,44.182,53.474z"/>
</svg>
