<?xml version="1.0" encoding="utf-8"?>
<!-- Generator: Adobe Illustrator 16.0.0, SVG Export Plug-In . SVG Version: 6.00 Build 0)  -->
<!DOCTYPE svg PUBLIC "-//W3C//DTD SVG 1.1//EN" "http://www.w3.org/Graphics/SVG/1.1/DTD/svg11.dtd">
<svg version="1.1" id="Ebene_1" xmlns="http://www.w3.org/2000/svg" xmlns:xlink="http://www.w3.org/1999/xlink" x="0px" y="0px"
	 width="21px" height="26px" viewBox="0 0 21 26" enable-background="new 0 0 21 26" xml:space="preserve">
<path fill="#D3A528" d="M10.5,26c-4.104,0-7.565-2.429-9.258-6.495c-0.535-1.285-0.806-2.648-0.806-4.048
	c0-2.644,1.654-4.933,1.725-5.029C2.6,9.826,3.32,8.844,3.762,8.245l5.456-7.408c0.324-0.44,0.792-0.692,1.282-0.692
	c0.492,0,0.959,0.252,1.284,0.692l5.455,7.408c0.441,0.599,1.164,1.582,1.602,2.184c0.072,0.096,1.725,2.385,1.725,5.029
	c0,1.399-0.27,2.763-0.807,4.048C18.066,23.571,14.605,26,10.5,26z M10.5,1.337c-0.109,0-0.223,0.073-0.321,0.207L4.723,8.952
	c-0.441,0.6-1.162,1.581-1.601,2.181c-0.015,0.02-1.494,2.078-1.494,4.325c0,1.241,0.241,2.449,0.715,3.59
	c1.523,3.659,4.497,5.759,8.156,5.759c3.661,0,6.633-2.1,8.157-5.759c0.475-1.141,0.715-2.349,0.715-3.59
	c0-2.247-1.479-4.305-1.494-4.325c-0.439-0.6-1.16-1.581-1.6-2.181l-5.456-7.407C10.724,1.411,10.61,1.337,10.5,1.337z"/>
<path fill="#D3A528" d="M14.312,17.061c-2.865,0-4.641-2.463-7.448-2.463c-2.807,0-4.136,2.182-4.136,2.182
	c0.263,4.064,3.641,7.099,7.771,7.099c4.096,0,7.45-3.16,7.766-7.175C18.252,15.816,17.16,17.061,14.312,17.061z"/>
</svg>
